<mxfile host="www.draw.io" modified="2020-01-18T09:53:32.087Z" agent="Mozilla/5.0 (Windows NT 10.0; Win64; x64) AppleWebKit/537.36 (KHTML, like Gecko) Chrome/79.0.3945.88 Safari/537.36" etag="-8mmLJnLl3I1yHu4YboO" version="12.5.5" type="github">
  <diagram id="q33hVcfU93wdtlLuKuc4" name="Page-1">
    <mxGraphModel dx="712" dy="389" grid="0" gridSize="10" guides="1" tooltips="1" connect="1" arrows="1" fold="1" page="1" pageScale="1" pageWidth="827" pageHeight="1169" math="0" shadow="0">
      <root>
        <mxCell id="0"/>
        <mxCell id="1" parent="0"/>
        <mxCell id="vYgAsw6mws9zVPYT2yr6-1" value="" style="rounded=0;whiteSpace=wrap;html=1;fillColor=#dae8fc;strokeColor=#6c8ebf;" vertex="1" parent="1">
          <mxGeometry x="153" y="63" width="491" height="297" as="geometry"/>
        </mxCell>
        <mxCell id="vYgAsw6mws9zVPYT2yr6-8" style="edgeStyle=orthogonalEdgeStyle;rounded=1;orthogonalLoop=1;jettySize=auto;html=1;entryX=0.25;entryY=0;entryDx=0;entryDy=0;startArrow=classic;startFill=1;" edge="1" parent="1" source="vYgAsw6mws9zVPYT2yr6-2" target="vYgAsw6mws9zVPYT2yr6-4">
          <mxGeometry relative="1" as="geometry"/>
        </mxCell>
        <mxCell id="vYgAsw6mws9zVPYT2yr6-2" value="&lt;font style=&quot;font-size: 18px&quot;&gt;container1&lt;/font&gt;" style="rounded=1;whiteSpace=wrap;html=1;" vertex="1" parent="1">
          <mxGeometry x="212" y="116" width="92" height="45" as="geometry"/>
        </mxCell>
        <mxCell id="vYgAsw6mws9zVPYT2yr6-9" style="edgeStyle=orthogonalEdgeStyle;rounded=1;orthogonalLoop=1;jettySize=auto;html=1;entryX=0.75;entryY=0;entryDx=0;entryDy=0;startArrow=classic;startFill=1;" edge="1" parent="1" source="vYgAsw6mws9zVPYT2yr6-3" target="vYgAsw6mws9zVPYT2yr6-4">
          <mxGeometry relative="1" as="geometry"/>
        </mxCell>
        <mxCell id="vYgAsw6mws9zVPYT2yr6-3" value="&lt;font style=&quot;font-size: 18px&quot;&gt;container2&lt;/font&gt;" style="rounded=1;whiteSpace=wrap;html=1;" vertex="1" parent="1">
          <mxGeometry x="491" y="116" width="92" height="45" as="geometry"/>
        </mxCell>
        <mxCell id="vYgAsw6mws9zVPYT2yr6-4" value="&lt;font style=&quot;font-size: 18px&quot;&gt;br0&lt;/font&gt;" style="rounded=1;whiteSpace=wrap;html=1;" vertex="1" parent="1">
          <mxGeometry x="295.5" y="260" width="206" height="45" as="geometry"/>
        </mxCell>
        <mxCell id="vYgAsw6mws9zVPYT2yr6-5" value="network&lt;br&gt;namespace" style="text;html=1;strokeColor=none;fillColor=none;align=center;verticalAlign=middle;whiteSpace=wrap;rounded=0;" vertex="1" parent="1">
          <mxGeometry x="223.5" y="83" width="69" height="20" as="geometry"/>
        </mxCell>
        <mxCell id="vYgAsw6mws9zVPYT2yr6-6" value="network&lt;br&gt;namespace" style="text;html=1;strokeColor=none;fillColor=none;align=center;verticalAlign=middle;whiteSpace=wrap;rounded=0;" vertex="1" parent="1">
          <mxGeometry x="502.5" y="83" width="69" height="20" as="geometry"/>
        </mxCell>
        <mxCell id="vYgAsw6mws9zVPYT2yr6-7" value="Host" style="text;html=1;strokeColor=none;fillColor=none;align=center;verticalAlign=middle;whiteSpace=wrap;rounded=0;" vertex="1" parent="1">
          <mxGeometry x="357" y="331" width="40" height="20" as="geometry"/>
        </mxCell>
        <mxCell id="vYgAsw6mws9zVPYT2yr6-10" value="veth0" style="text;html=1;strokeColor=none;fillColor=none;align=center;verticalAlign=middle;whiteSpace=wrap;rounded=0;" vertex="1" parent="1">
          <mxGeometry x="217" y="174" width="40" height="20" as="geometry"/>
        </mxCell>
        <mxCell id="vYgAsw6mws9zVPYT2yr6-11" value="veth2" style="text;html=1;strokeColor=none;fillColor=none;align=center;verticalAlign=middle;whiteSpace=wrap;rounded=0;" vertex="1" parent="1">
          <mxGeometry x="543" y="170" width="40" height="20" as="geometry"/>
        </mxCell>
        <mxCell id="vYgAsw6mws9zVPYT2yr6-13" value="veth1" style="text;html=1;strokeColor=none;fillColor=none;align=center;verticalAlign=middle;whiteSpace=wrap;rounded=0;" vertex="1" parent="1">
          <mxGeometry x="295.5" y="233" width="40" height="20" as="geometry"/>
        </mxCell>
        <mxCell id="vYgAsw6mws9zVPYT2yr6-14" value="veth3" style="text;html=1;strokeColor=none;fillColor=none;align=center;verticalAlign=middle;whiteSpace=wrap;rounded=0;" vertex="1" parent="1">
          <mxGeometry x="454" y="233" width="40" height="20" as="geometry"/>
        </mxCell>
      </root>
    </mxGraphModel>
  </diagram>
</mxfile>
